<mxfile host="app.diagrams.net" modified="2024-03-13T14:43:38.230Z" agent="Mozilla/5.0 (Windows NT 10.0; Win64; x64) AppleWebKit/537.36 (KHTML, like Gecko) Chrome/121.0.0.0 Safari/537.36 Edg/121.0.0.0" etag="hwSrSHspGT0ulM7FftuH" version="24.0.4" type="github">
  <diagram id="C5RBs43oDa-KdzZeNtuy" name="Page-1">
    <mxGraphModel dx="2084" dy="1174" grid="1" gridSize="10" guides="1" tooltips="1" connect="1" arrows="1" fold="1" page="1" pageScale="1" pageWidth="1000" pageHeight="1200" math="0" shadow="0">
      <root>
        <mxCell id="WIyWlLk6GJQsqaUBKTNV-0" />
        <mxCell id="WIyWlLk6GJQsqaUBKTNV-1" parent="WIyWlLk6GJQsqaUBKTNV-0" />
        <mxCell id="5aqiA1IUvi8DO8PF1E8R-0" value="&lt;font style=&quot;font-size: 20px;&quot;&gt;TcpSocket&lt;/font&gt;" style="swimlane;fontStyle=1;align=center;verticalAlign=top;childLayout=stackLayout;horizontal=1;startSize=26;horizontalStack=0;resizeParent=1;resizeParentMax=0;resizeLast=0;collapsible=1;marginBottom=0;whiteSpace=wrap;html=1;" vertex="1" parent="WIyWlLk6GJQsqaUBKTNV-1">
          <mxGeometry x="90" y="50" width="240" height="130" as="geometry" />
        </mxCell>
        <mxCell id="5aqiA1IUvi8DO8PF1E8R-1" value="&lt;font style=&quot;font-size: 20px;&quot;&gt;&lt;font style=&quot;font-size: 20px;&quot;&gt;- m_descriptor：&lt;/font&gt;int&amp;nbsp;&lt;/font&gt;" style="text;strokeColor=none;fillColor=none;align=left;verticalAlign=top;spacingLeft=4;spacingRight=4;overflow=hidden;rotatable=0;points=[[0,0.5],[1,0.5]];portConstraint=eastwest;whiteSpace=wrap;html=1;" vertex="1" parent="5aqiA1IUvi8DO8PF1E8R-0">
          <mxGeometry y="26" width="240" height="44" as="geometry" />
        </mxCell>
        <mxCell id="5aqiA1IUvi8DO8PF1E8R-2" value="" style="line;strokeWidth=1;fillColor=none;align=left;verticalAlign=middle;spacingTop=-1;spacingLeft=3;spacingRight=3;rotatable=0;labelPosition=right;points=[];portConstraint=eastwest;strokeColor=inherit;" vertex="1" parent="5aqiA1IUvi8DO8PF1E8R-0">
          <mxGeometry y="70" width="240" height="8" as="geometry" />
        </mxCell>
        <mxCell id="5aqiA1IUvi8DO8PF1E8R-3" value="&lt;font style=&quot;font-size: 20px;&quot;&gt;+ run()：&lt;/font&gt;&lt;span style=&quot;font-size: 20px;&quot;&gt;void&amp;nbsp;&lt;/span&gt;" style="text;strokeColor=none;fillColor=none;align=left;verticalAlign=top;spacingLeft=4;spacingRight=4;overflow=hidden;rotatable=0;points=[[0,0.5],[1,0.5]];portConstraint=eastwest;whiteSpace=wrap;html=1;" vertex="1" parent="5aqiA1IUvi8DO8PF1E8R-0">
          <mxGeometry y="78" width="240" height="52" as="geometry" />
        </mxCell>
        <mxCell id="5aqiA1IUvi8DO8PF1E8R-8" value="&lt;font style=&quot;font-size: 20px;&quot;&gt;TcpServer&lt;/font&gt;" style="swimlane;fontStyle=1;align=center;verticalAlign=top;childLayout=stackLayout;horizontal=1;startSize=26;horizontalStack=0;resizeParent=1;resizeParentMax=0;resizeLast=0;collapsible=1;marginBottom=0;whiteSpace=wrap;html=1;" vertex="1" parent="WIyWlLk6GJQsqaUBKTNV-1">
          <mxGeometry x="440" y="50" width="460" height="260" as="geometry" />
        </mxCell>
        <mxCell id="5aqiA1IUvi8DO8PF1E8R-9" value="&lt;div&gt;&lt;span style=&quot;font-size: 20px;&quot;&gt;- m_port：&lt;/span&gt;&lt;span style=&quot;font-size: 20px; background-color: initial;&quot;&gt;qint16&lt;/span&gt;&lt;span style=&quot;font-size: 20px; background-color: initial;&quot;&gt;&amp;nbsp;&lt;/span&gt;&lt;/div&gt;&lt;div&gt;&lt;span style=&quot;font-size: 20px; white-space: normal;&quot;&gt;- m_tcpSocketConnectList：&lt;/span&gt;&lt;span style=&quot;font-size: 20px; background-color: initial;&quot;&gt;QList&amp;lt;QTcpSocket *&amp;gt;&lt;/span&gt;&lt;/div&gt;" style="text;strokeColor=none;fillColor=none;align=left;verticalAlign=top;spacingLeft=4;spacingRight=4;overflow=hidden;rotatable=0;points=[[0,0.5],[1,0.5]];portConstraint=eastwest;whiteSpace=wrap;html=1;" vertex="1" parent="5aqiA1IUvi8DO8PF1E8R-8">
          <mxGeometry y="26" width="460" height="104" as="geometry" />
        </mxCell>
        <mxCell id="5aqiA1IUvi8DO8PF1E8R-10" value="" style="line;strokeWidth=1;fillColor=none;align=left;verticalAlign=middle;spacingTop=-1;spacingLeft=3;spacingRight=3;rotatable=0;labelPosition=right;points=[];portConstraint=eastwest;strokeColor=inherit;" vertex="1" parent="5aqiA1IUvi8DO8PF1E8R-8">
          <mxGeometry y="130" width="460" height="8" as="geometry" />
        </mxCell>
        <mxCell id="5aqiA1IUvi8DO8PF1E8R-11" value="&lt;font style=&quot;font-size: 20px;&quot;&gt;+ run()：&lt;/font&gt;&lt;span style=&quot;font-size: 20px;&quot;&gt;void&lt;/span&gt;&lt;div&gt;&lt;span style=&quot;font-size: 20px;&quot;&gt;&lt;br&gt;&lt;/span&gt;&lt;/div&gt;&lt;div&gt;&lt;span style=&quot;background-color: initial; font-size: 20px;&quot;&gt;# incomingConnection(qintptr )：&amp;nbsp;&lt;/span&gt;&lt;span style=&quot;font-size: 20px;&quot;&gt;void&amp;nbsp;&lt;/span&gt;&lt;span style=&quot;font-size: 20px;&quot;&gt;&amp;nbsp;&lt;/span&gt;&lt;/div&gt;" style="text;strokeColor=none;fillColor=none;align=left;verticalAlign=top;spacingLeft=4;spacingRight=4;overflow=hidden;rotatable=0;points=[[0,0.5],[1,0.5]];portConstraint=eastwest;whiteSpace=wrap;html=1;" vertex="1" parent="5aqiA1IUvi8DO8PF1E8R-8">
          <mxGeometry y="138" width="460" height="122" as="geometry" />
        </mxCell>
        <mxCell id="5aqiA1IUvi8DO8PF1E8R-20" style="edgeStyle=none;rounded=0;orthogonalLoop=1;jettySize=auto;html=1;exitX=0.25;exitY=0;exitDx=0;exitDy=0;" edge="1" parent="WIyWlLk6GJQsqaUBKTNV-1" source="5aqiA1IUvi8DO8PF1E8R-12" target="5aqiA1IUvi8DO8PF1E8R-3">
          <mxGeometry relative="1" as="geometry" />
        </mxCell>
        <mxCell id="5aqiA1IUvi8DO8PF1E8R-12" value="&lt;font style=&quot;font-size: 20px;&quot;&gt;QtQQ_Server&lt;/font&gt;" style="swimlane;fontStyle=1;align=center;verticalAlign=top;childLayout=stackLayout;horizontal=1;startSize=26;horizontalStack=0;resizeParent=1;resizeParentMax=0;resizeLast=0;collapsible=1;marginBottom=0;whiteSpace=wrap;html=1;" vertex="1" parent="WIyWlLk6GJQsqaUBKTNV-1">
          <mxGeometry x="80" y="510" width="820" height="620" as="geometry" />
        </mxCell>
        <mxCell id="5aqiA1IUvi8DO8PF1E8R-13" value="&lt;div&gt;&lt;span style=&quot;font-size: 20px;&quot;&gt;- m_tcpServer：&lt;/span&gt;&lt;span style=&quot;font-size: 20px; background-color: initial;&quot;&gt;TcpServer *&lt;/span&gt;&lt;/div&gt;&lt;div&gt;&lt;span style=&quot;font-size: 20px; white-space: normal;&quot;&gt;- m_udpSender：&lt;/span&gt;&lt;span style=&quot;font-size: 20px; background-color: initial;&quot;&gt;QUdpSocket *&lt;/span&gt;&lt;/div&gt;&lt;div&gt;&lt;span style=&quot;font-size: 20px; background-color: initial;&quot;&gt;- m_depID：&lt;/span&gt;&lt;span style=&quot;font-size: 20px; background-color: initial;&quot;&gt;int&lt;/span&gt;&lt;span style=&quot;font-size: 20px; background-color: initial;&quot;&gt;&amp;nbsp;&lt;/span&gt;&lt;br&gt;&lt;/div&gt;&lt;div&gt;&lt;span style=&quot;font-size: 20px; white-space: normal;&quot;&gt;- m_employeeID：&lt;/span&gt;&lt;span style=&quot;font-size: 20px; background-color: initial;&quot;&gt;int&lt;/span&gt;&lt;span style=&quot;font-size: 20px; background-color: initial;&quot;&gt;&amp;nbsp;&lt;/span&gt;&lt;/div&gt;&lt;div&gt;&lt;span style=&quot;font-size: 20px; background-color: initial;&quot;&gt;- m_compDepID：&lt;/span&gt;&lt;span style=&quot;font-size: 20px; background-color: initial;&quot;&gt;int&lt;/span&gt;&lt;span style=&quot;font-size: 20px; background-color: initial;&quot;&gt;&amp;nbsp;&lt;/span&gt;&lt;br&gt;&lt;/div&gt;&lt;div&gt;&lt;span style=&quot;font-size: 20px; white-space: normal;&quot;&gt;- m_queryInfoModel：&lt;/span&gt;&lt;span style=&quot;font-size: 20px; background-color: initial;&quot;&gt;QSqlQueryModel *&lt;/span&gt;&lt;/div&gt;&lt;div&gt;&lt;span style=&quot;font-size: 20px; background-color: initial;&quot;&gt;- m_statusMap：&lt;/span&gt;&lt;span style=&quot;font-size: 20px; background-color: initial;&quot;&gt;QMap&amp;lt;QString, QString&amp;gt;&lt;/span&gt;&lt;span style=&quot;font-size: 20px; background-color: initial;&quot;&gt;&amp;nbsp;&lt;/span&gt;&lt;br&gt;&lt;/div&gt;&lt;div&gt;&lt;span style=&quot;font-size: 20px; white-space: normal;&quot;&gt;- m_depNameMap：&lt;/span&gt;&lt;span style=&quot;font-size: 20px; background-color: initial;&quot;&gt;QMap&amp;lt;QString, QString&amp;gt;&lt;/span&gt;&lt;span style=&quot;font-size: 20px; background-color: initial;&quot;&gt;&amp;nbsp;&lt;/span&gt;&lt;/div&gt;&lt;div&gt;&lt;span style=&quot;font-size: 20px; white-space: normal;&quot;&gt;- m_onlineMap：&lt;/span&gt;&lt;span style=&quot;font-size: 20px; background-color: initial;&quot;&gt;QMap&amp;lt;QString, QString&amp;gt;&lt;/span&gt;&lt;span style=&quot;font-size: 20px; background-color: initial;&quot;&gt;&amp;nbsp;&lt;/span&gt;&lt;/div&gt;&lt;div&gt;&lt;span style=&quot;font-size: 20px; background-color: initial;&quot;&gt;- m_timer：&lt;/span&gt;&lt;span style=&quot;font-size: 20px; background-color: initial;&quot;&gt;QTimer *&lt;/span&gt;&lt;br&gt;&lt;/div&gt;&lt;div&gt;&lt;span style=&quot;font-size: 20px; background-color: initial;&quot;&gt;- m_pixPath：&lt;/span&gt;&lt;span style=&quot;font-size: 20px; background-color: initial;&quot;&gt;QString&lt;/span&gt;&lt;br&gt;&lt;/div&gt;" style="text;strokeColor=none;fillColor=none;align=left;verticalAlign=top;spacingLeft=4;spacingRight=4;overflow=hidden;rotatable=0;points=[[0,0.5],[1,0.5]];portConstraint=eastwest;whiteSpace=wrap;html=1;" vertex="1" parent="5aqiA1IUvi8DO8PF1E8R-12">
          <mxGeometry y="26" width="820" height="294" as="geometry" />
        </mxCell>
        <mxCell id="5aqiA1IUvi8DO8PF1E8R-14" value="" style="line;strokeWidth=1;fillColor=none;align=left;verticalAlign=middle;spacingTop=-1;spacingLeft=3;spacingRight=3;rotatable=0;labelPosition=right;points=[];portConstraint=eastwest;strokeColor=inherit;" vertex="1" parent="5aqiA1IUvi8DO8PF1E8R-12">
          <mxGeometry y="320" width="820" height="8" as="geometry" />
        </mxCell>
        <mxCell id="5aqiA1IUvi8DO8PF1E8R-15" value="&lt;div&gt;&lt;span style=&quot;font-size: 20px;&quot;&gt;- initComboBoxData()：&lt;/span&gt;&lt;span style=&quot;font-size: 20px; background-color: initial;&quot;&gt;void&lt;/span&gt;&lt;span style=&quot;font-size: 20px; background-color: initial;&quot;&gt;&amp;nbsp;&lt;/span&gt;&lt;/div&gt;&lt;div&gt;&lt;span style=&quot;font-size: 20px;&quot;&gt;- initTcpSocket()：&lt;/span&gt;&lt;span style=&quot;font-size: 20px; background-color: initial;&quot;&gt;void&lt;/span&gt;&lt;span style=&quot;font-size: 20px; background-color: initial;&quot;&gt;&amp;nbsp;&lt;/span&gt;&lt;/div&gt;&lt;div&gt;&lt;span style=&quot;font-size: 20px;&quot;&gt;- initUdpSocket()：&lt;/span&gt;&lt;span style=&quot;font-size: 20px; background-color: initial;&quot;&gt;void&lt;/span&gt;&lt;span style=&quot;font-size: 20px; background-color: initial;&quot;&gt;&amp;nbsp;&lt;/span&gt;&lt;/div&gt;&lt;div&gt;&lt;span style=&quot;font-size: 20px;&quot;&gt;- connectMySql()：&lt;/span&gt;&lt;span style=&quot;font-size: 20px; background-color: initial;&quot;&gt;bool&lt;/span&gt;&lt;span style=&quot;font-size: 20px; background-color: initial;&quot;&gt;&amp;nbsp;&lt;/span&gt;&lt;/div&gt;&lt;div&gt;&lt;span style=&quot;font-size: 20px;&quot;&gt;- getCompDepID()：&lt;/span&gt;&lt;span style=&quot;font-size: 20px; background-color: initial;&quot;&gt;int&lt;/span&gt;&lt;span style=&quot;font-size: 20px; background-color: initial;&quot;&gt;&amp;nbsp;&lt;/span&gt;&lt;/div&gt;&lt;div&gt;&lt;span style=&quot;font-size: 20px;&quot;&gt;- updateTaleData(int , int )：&lt;/span&gt;&lt;span style=&quot;font-size: 20px; background-color: initial;&quot;&gt;void&lt;/span&gt;&lt;/div&gt;&lt;div&gt;&lt;span style=&quot;font-size: 20px;&quot;&gt;- setDepNameMap()：&lt;/span&gt;&lt;span style=&quot;font-size: 20px; background-color: initial;&quot;&gt;void&lt;/span&gt;&lt;span style=&quot;font-size: 20px; background-color: initial;&quot;&gt;&amp;nbsp;&lt;/span&gt;&lt;/div&gt;&lt;div&gt;&lt;span style=&quot;font-size: 20px;&quot;&gt;- setStatusMap()：&lt;/span&gt;&lt;span style=&quot;font-size: 20px; background-color: initial;&quot;&gt;void&lt;/span&gt;&lt;span style=&quot;font-size: 20px; background-color: initial;&quot;&gt;&amp;nbsp;&lt;/span&gt;&lt;/div&gt;&lt;div&gt;&lt;span style=&quot;font-size: 20px;&quot;&gt;- setOnLineMap()：&lt;/span&gt;&lt;span style=&quot;font-size: 20px; background-color: initial;&quot;&gt;void&lt;/span&gt;&lt;span style=&quot;font-size: 20px; background-color: initial;&quot;&gt;&amp;nbsp;&lt;/span&gt;&lt;/div&gt;&lt;div&gt;&lt;span style=&quot;font-size: 20px;&quot;&gt;- getDepartment(int )：&lt;/span&gt;&lt;span style=&quot;font-size: 20px; background-color: initial;&quot;&gt;QString&lt;/span&gt;&lt;span style=&quot;font-size: 20px; background-color: initial;&quot;&gt;&amp;nbsp;&lt;/span&gt;&lt;/div&gt;&lt;div&gt;&lt;span style=&quot;font-size: 20px;&quot;&gt;- getEmployeeName(int )：&lt;/span&gt;&lt;span style=&quot;font-size: 20px; background-color: initial;&quot;&gt;QString&lt;/span&gt;&lt;span style=&quot;font-size: 20px; background-color: initial;&quot;&gt;&amp;nbsp;&lt;/span&gt;&lt;/div&gt;&lt;div&gt;&lt;br&gt;&lt;/div&gt;" style="text;strokeColor=none;fillColor=none;align=left;verticalAlign=top;spacingLeft=4;spacingRight=4;overflow=hidden;rotatable=0;points=[[0,0.5],[1,0.5]];portConstraint=eastwest;whiteSpace=wrap;html=1;" vertex="1" parent="5aqiA1IUvi8DO8PF1E8R-12">
          <mxGeometry y="328" width="820" height="292" as="geometry" />
        </mxCell>
        <mxCell id="5aqiA1IUvi8DO8PF1E8R-21" style="edgeStyle=none;rounded=0;orthogonalLoop=1;jettySize=auto;html=1;exitX=0.75;exitY=0;exitDx=0;exitDy=0;entryX=0.522;entryY=1.039;entryDx=0;entryDy=0;entryPerimeter=0;" edge="1" parent="WIyWlLk6GJQsqaUBKTNV-1" source="5aqiA1IUvi8DO8PF1E8R-12" target="5aqiA1IUvi8DO8PF1E8R-11">
          <mxGeometry relative="1" as="geometry" />
        </mxCell>
      </root>
    </mxGraphModel>
  </diagram>
</mxfile>
